<mxfile host="app.diagrams.net" modified="2022-01-27T01:51:38.746Z" agent="5.0 (Macintosh; Intel Mac OS X 10_15_7) AppleWebKit/537.36 (KHTML, like Gecko) Chrome/97.0.4692.99 Safari/537.36" etag="yT7ZI8jI6udWLfqkrMOT" version="16.4.7" type="github">
  <diagram id="aE2iUcvTd-GAZIzFrjn4" name="Page-1">
    <mxGraphModel dx="946" dy="557" grid="1" gridSize="10" guides="1" tooltips="1" connect="1" arrows="1" fold="1" page="1" pageScale="1" pageWidth="827" pageHeight="1169" math="0" shadow="0">
      <root>
        <mxCell id="0" />
        <mxCell id="1" parent="0" />
        <mxCell id="u-FWoVEfWogfuSIkOhqo-108" value="" style="edgeStyle=orthogonalEdgeStyle;rounded=0;orthogonalLoop=1;jettySize=auto;html=1;fontFamily=Times New Roman;fontSize=15;fontColor=#000000;entryX=0.25;entryY=0;entryDx=0;entryDy=0;" parent="1" source="u-FWoVEfWogfuSIkOhqo-32" target="u-FWoVEfWogfuSIkOhqo-98" edge="1">
          <mxGeometry relative="1" as="geometry" />
        </mxCell>
        <mxCell id="u-FWoVEfWogfuSIkOhqo-32" value="NEW SITE INSPECTION" style="dashed=0;align=center;fontSize=15;shape=rect;fillColor=#F2F2F2;strokeColor=none;fontStyle=1;shadow=1;fontColor=#000000;html=0;gradientColor=none;rounded=0;fontFamily=Times New Roman;" parent="1" vertex="1">
          <mxGeometry x="94" y="80" width="180" height="90" as="geometry" />
        </mxCell>
        <mxCell id="u-FWoVEfWogfuSIkOhqo-36" value="INSPECTION ACTION LIST" style="dashed=0;align=center;fontSize=15;shape=rect;fillColor=#e0e0e0;strokeColor=none;fontStyle=1;shadow=1;fontColor=#000000;html=0;fontFamily=Times New Roman;whiteSpace=wrap;" parent="1" vertex="1">
          <mxGeometry x="469" y="80" width="176" height="90" as="geometry" />
        </mxCell>
        <mxCell id="u-FWoVEfWogfuSIkOhqo-37" value="SITE INSPECTION LIST" style="dashed=0;align=center;fontSize=15;shape=rect;fillColor=#e0e0e0;strokeColor=none;fontStyle=1;shadow=1;fontColor=#000000;html=0;fontFamily=Times New Roman;" parent="1" vertex="1">
          <mxGeometry x="276" y="80" width="190" height="90" as="geometry" />
        </mxCell>
        <mxCell id="u-FWoVEfWogfuSIkOhqo-60" value="" style="dashed=0;align=center;fontSize=12;shape=rect;fillColor=#ffffff;strokeColor=#cccccc;rounded=0;fontFamily=Times New Roman;fontColor=#000000;html=0;" parent="1" vertex="1">
          <mxGeometry x="698" y="80" width="100" height="90" as="geometry" />
        </mxCell>
        <mxCell id="u-FWoVEfWogfuSIkOhqo-62" value="" style="dashed=0;html=1;shape=mxgraph.gmdl.triangle;fillColor=#cccccc;strokeColor=none;rounded=0;fontFamily=Times New Roman;fontSize=15;fontColor=#000000;" parent="u-FWoVEfWogfuSIkOhqo-60" vertex="1">
          <mxGeometry x="1" y="0.5" width="10" height="5" relative="1" as="geometry">
            <mxPoint x="-25" y="-2.5" as="offset" />
          </mxGeometry>
        </mxCell>
        <mxCell id="u-FWoVEfWogfuSIkOhqo-46" value="" style="shape=ellipse;dashed=0;strokeColor=none;shadow=1;fontSize=13;align=center;verticalAlign=top;labelPosition=center;verticalLabelPosition=bottom;html=1;aspect=fixed;rounded=0;fontFamily=Times New Roman;fontColor=#000000;fillColor=none;gradientColor=none;" parent="u-FWoVEfWogfuSIkOhqo-60" vertex="1">
          <mxGeometry x="1.25" y="4.25" width="81.5" height="81.5" as="geometry" />
        </mxCell>
        <mxCell id="u-FWoVEfWogfuSIkOhqo-47" value="" style="dashed=0;html=1;shape=mxgraph.gmdl.chat;strokeColor=#737373;fillColor=#737373;shadow=0;sketch=0;rounded=0;fontFamily=Times New Roman;fontSize=15;fontColor=#000000;" parent="u-FWoVEfWogfuSIkOhqo-46" vertex="1">
          <mxGeometry x="26.196428571428573" y="26.196428571428573" width="29.107142857142858" height="29.107142857142858" as="geometry" />
        </mxCell>
        <mxCell id="u-FWoVEfWogfuSIkOhqo-89" value="&lt;u&gt;Home&lt;/u&gt;" style="html=1;strokeColor=none;fillColor=#0079D6;labelPosition=center;verticalLabelPosition=middle;verticalAlign=top;align=center;fontSize=12;outlineConnect=0;spacingTop=-6;fontColor=#FFFFFF;sketch=0;shape=mxgraph.sitemap.home;rounded=0;fontFamily=Times New Roman;" parent="1" vertex="1">
          <mxGeometry x="20" y="110" width="50" height="35" as="geometry" />
        </mxCell>
        <mxCell id="u-FWoVEfWogfuSIkOhqo-98" value="" style="rounded=0;whiteSpace=wrap;html=1;labelBackgroundColor=#CCCCCC;fontFamily=Times New Roman;fontSize=15;fontColor=#000000;fillColor=#FFFFFF;gradientColor=none;" parent="1" vertex="1">
          <mxGeometry x="100" y="200" width="550" height="210" as="geometry" />
        </mxCell>
        <mxCell id="u-FWoVEfWogfuSIkOhqo-102" value="" style="rounded=0;whiteSpace=wrap;html=1;labelBackgroundColor=#CCCCCC;fontFamily=Times New Roman;fontSize=15;fontColor=#000000;fillColor=#FFFFFF;gradientColor=none;" parent="1" vertex="1">
          <mxGeometry x="466" y="220" width="170" height="30" as="geometry" />
        </mxCell>
        <mxCell id="u-FWoVEfWogfuSIkOhqo-103" value="" style="rounded=0;whiteSpace=wrap;html=1;labelBackgroundColor=#CCCCCC;fontFamily=Times New Roman;fontSize=15;fontColor=#000000;fillColor=#FFFFFF;gradientColor=none;" parent="1" vertex="1">
          <mxGeometry x="466" y="280" width="170" height="30" as="geometry" />
        </mxCell>
        <mxCell id="u-FWoVEfWogfuSIkOhqo-104" value="" style="rounded=0;whiteSpace=wrap;html=1;labelBackgroundColor=#CCCCCC;fontFamily=Times New Roman;fontSize=15;fontColor=#000000;fillColor=#FFFFFF;gradientColor=none;" parent="1" vertex="1">
          <mxGeometry x="466" y="340" width="170" height="30" as="geometry" />
        </mxCell>
        <mxCell id="u-FWoVEfWogfuSIkOhqo-105" value="" style="rounded=0;whiteSpace=wrap;html=1;labelBackgroundColor=#CCCCCC;fontFamily=Times New Roman;fontSize=15;fontColor=#000000;fillColor=#FFFFFF;gradientColor=none;" parent="1" vertex="1">
          <mxGeometry x="200" y="220" width="170" height="30" as="geometry" />
        </mxCell>
        <mxCell id="u-FWoVEfWogfuSIkOhqo-106" value="" style="rounded=0;whiteSpace=wrap;html=1;labelBackgroundColor=#CCCCCC;fontFamily=Times New Roman;fontSize=15;fontColor=#000000;fillColor=#FFFFFF;gradientColor=none;" parent="1" vertex="1">
          <mxGeometry x="200" y="280" width="170" height="30" as="geometry" />
        </mxCell>
        <mxCell id="u-FWoVEfWogfuSIkOhqo-107" value="" style="rounded=0;whiteSpace=wrap;html=1;labelBackgroundColor=#CCCCCC;fontFamily=Times New Roman;fontSize=15;fontColor=#000000;fillColor=#FFFFFF;gradientColor=none;" parent="1" vertex="1">
          <mxGeometry x="200" y="340" width="170" height="30" as="geometry" />
        </mxCell>
        <mxCell id="u-FWoVEfWogfuSIkOhqo-114" value="" style="line;strokeWidth=2;html=1;rounded=0;labelBackgroundColor=#CCCCCC;fontFamily=Times New Roman;fontSize=15;fontColor=#000000;fillColor=#FFFFFF;gradientColor=none;fontStyle=0;sketch=1;" parent="1" vertex="1">
          <mxGeometry x="130" y="220" width="50" height="10" as="geometry" />
        </mxCell>
        <mxCell id="u-FWoVEfWogfuSIkOhqo-115" value="" style="line;strokeWidth=2;html=1;rounded=0;labelBackgroundColor=#CCCCCC;fontFamily=Times New Roman;fontSize=15;fontColor=#000000;fillColor=#FFFFFF;gradientColor=none;fontStyle=0;sketch=1;" parent="1" vertex="1">
          <mxGeometry x="130" y="230" width="50" height="10" as="geometry" />
        </mxCell>
        <mxCell id="u-FWoVEfWogfuSIkOhqo-116" value="" style="line;strokeWidth=2;html=1;rounded=0;labelBackgroundColor=#CCCCCC;fontFamily=Times New Roman;fontSize=15;fontColor=#000000;fillColor=#FFFFFF;gradientColor=none;fontStyle=0;sketch=1;" parent="1" vertex="1">
          <mxGeometry x="130" y="280" width="50" height="10" as="geometry" />
        </mxCell>
        <mxCell id="u-FWoVEfWogfuSIkOhqo-117" value="" style="line;strokeWidth=2;html=1;rounded=0;labelBackgroundColor=#CCCCCC;fontFamily=Times New Roman;fontSize=15;fontColor=#000000;fillColor=#FFFFFF;gradientColor=none;fontStyle=0;sketch=1;" parent="1" vertex="1">
          <mxGeometry x="130" y="290" width="50" height="10" as="geometry" />
        </mxCell>
        <mxCell id="u-FWoVEfWogfuSIkOhqo-118" value="" style="line;strokeWidth=2;html=1;rounded=0;labelBackgroundColor=#CCCCCC;fontFamily=Times New Roman;fontSize=15;fontColor=#000000;fillColor=#FFFFFF;gradientColor=none;fontStyle=0;sketch=1;" parent="1" vertex="1">
          <mxGeometry x="130" y="340" width="50" height="10" as="geometry" />
        </mxCell>
        <mxCell id="u-FWoVEfWogfuSIkOhqo-119" value="" style="line;strokeWidth=2;html=1;rounded=0;labelBackgroundColor=#CCCCCC;fontFamily=Times New Roman;fontSize=15;fontColor=#000000;fillColor=#FFFFFF;gradientColor=none;fontStyle=0;sketch=1;" parent="1" vertex="1">
          <mxGeometry x="140" y="350" width="50" height="10" as="geometry" />
        </mxCell>
        <mxCell id="u-FWoVEfWogfuSIkOhqo-120" value="" style="line;strokeWidth=2;html=1;rounded=0;labelBackgroundColor=#CCCCCC;fontFamily=Times New Roman;fontSize=15;fontColor=#000000;fillColor=#FFFFFF;gradientColor=none;fontStyle=0;sketch=1;" parent="1" vertex="1">
          <mxGeometry x="400" y="220" width="50" height="10" as="geometry" />
        </mxCell>
        <mxCell id="u-FWoVEfWogfuSIkOhqo-121" value="" style="line;strokeWidth=2;html=1;rounded=0;labelBackgroundColor=#CCCCCC;fontFamily=Times New Roman;fontSize=15;fontColor=#000000;fillColor=#FFFFFF;gradientColor=none;fontStyle=0;sketch=1;" parent="1" vertex="1">
          <mxGeometry x="410" y="230" width="50" height="10" as="geometry" />
        </mxCell>
        <mxCell id="u-FWoVEfWogfuSIkOhqo-123" value="" style="line;strokeWidth=2;html=1;rounded=0;labelBackgroundColor=#CCCCCC;fontFamily=Times New Roman;fontSize=15;fontColor=#000000;fillColor=#FFFFFF;gradientColor=none;fontStyle=0;sketch=1;" parent="1" vertex="1">
          <mxGeometry x="410" y="280" width="50" height="10" as="geometry" />
        </mxCell>
        <mxCell id="u-FWoVEfWogfuSIkOhqo-124" value="" style="line;strokeWidth=2;html=1;rounded=0;labelBackgroundColor=#CCCCCC;fontFamily=Times New Roman;fontSize=15;fontColor=#000000;fillColor=#FFFFFF;gradientColor=none;fontStyle=0;sketch=1;" parent="1" vertex="1">
          <mxGeometry x="410" y="290" width="50" height="10" as="geometry" />
        </mxCell>
        <mxCell id="u-FWoVEfWogfuSIkOhqo-125" value="" style="line;strokeWidth=2;html=1;rounded=0;labelBackgroundColor=#CCCCCC;fontFamily=Times New Roman;fontSize=15;fontColor=#000000;fillColor=#FFFFFF;gradientColor=none;fontStyle=0;sketch=1;" parent="1" vertex="1">
          <mxGeometry x="410" y="340" width="50" height="10" as="geometry" />
        </mxCell>
        <mxCell id="u-FWoVEfWogfuSIkOhqo-126" value="" style="line;strokeWidth=2;html=1;rounded=0;labelBackgroundColor=#CCCCCC;fontFamily=Times New Roman;fontSize=15;fontColor=#000000;fillColor=#FFFFFF;gradientColor=none;fontStyle=0;sketch=1;" parent="1" vertex="1">
          <mxGeometry x="410" y="350" width="50" height="10" as="geometry" />
        </mxCell>
        <mxCell id="T_9PMd5KUvyudqsOJ9a_-1" value="" style="dashed=0;align=center;fontSize=12;shape=rect;fillColor=#ffffff;strokeColor=#cccccc;rounded=0;fontFamily=Times New Roman;fontColor=#000000;html=0;" vertex="1" parent="1">
          <mxGeometry x="690" y="260" width="100" height="90" as="geometry" />
        </mxCell>
        <mxCell id="T_9PMd5KUvyudqsOJ9a_-2" value="" style="dashed=0;html=1;shape=mxgraph.gmdl.triangle;fillColor=#cccccc;strokeColor=none;rounded=0;fontFamily=Times New Roman;fontSize=15;fontColor=#000000;" vertex="1" parent="T_9PMd5KUvyudqsOJ9a_-1">
          <mxGeometry x="1" y="0.5" width="10" height="5" relative="1" as="geometry">
            <mxPoint x="-25" y="-2.5" as="offset" />
          </mxGeometry>
        </mxCell>
      </root>
    </mxGraphModel>
  </diagram>
</mxfile>
